<?xml version="1.0" encoding="UTF-8"?>
<svg id="Air_Conditioning" data-name="Air Conditioning" xmlns="http://www.w3.org/2000/svg" xmlns:xlink="http://www.w3.org/1999/xlink" viewBox="0 0 463.81 458">
  <defs>
    <style>.cls-1 {
  fill: url("#linear-gradient-2");
}

.cls-2 {
  fill: url("#linear-gradient-3");
}

.cls-3 {
  fill: url("#linear-gradient");
}

</style>
    <linearGradient id="linear-gradient" x1="277.62" y1="270.4" x2="149.9" y2="58.1" gradientUnits="userSpaceOnUse">
      <stop offset="0" stop-color="#ccebff"></stop>
      <stop offset="1" stop-color="#005099"></stop>
    </linearGradient>
    <linearGradient id="linear-gradient-2" x1="220.15" y1="483.62" x2="241.44" y2="168.81" gradientUnits="userSpaceOnUse">
      <stop offset="0" stop-color="#ee4423"></stop>
      <stop offset="1" stop-color="#fed47b"></stop>
    </linearGradient>
    <linearGradient id="linear-gradient-3" x1="205.59" y1="482.63" x2="226.87" y2="167.82" xlink:href="#linear-gradient-2"></linearGradient>
  </defs>
  <path class="cls-3" d="m463.81,211.84s-6.69,13.6-9.26,17.53c-2.94,4.49-6.21,8.78-9.54,13-7.03,8.91-15.34,16.8-24.89,22.92-16.15,10.36-33.76,15.18-52.57,16.78-20.72,1.76-40.76-1.48-60.61-6.38-1.93-.48-3.86-.97-5.8-1.48-.42-.11-.84-.22-1.26-.34h0c-15.66-4.18-30.8-9.91-45.88-15.79-2.56-1-5.11-2.01-7.67-3.01-1.93-.75-3.86-1.51-5.8-2.26-10.8-4.2-21.73-8.2-32.9-11.27-17.89-4.88-36.04-6.31-54.4-4.93-2.42.17-4.84.4-7.27.67-1.01.12-2.02.24-3.03.37-8.99,1.18-17.79,2.95-26.45,5.2-1.78.47-3.57.94-5.34,1.47-3.25.91-6.48,1.89-9.68,2.93-9.75,3.16-19.34,6.85-28.84,10.89-4.83,2.05-14.4,6.7-18.81,8.29l1.66-3.19L192.44,0l18.74,36.37-97.62,187.68c1.92-.89,3.86-1.74,5.83-2.55,1.53-.64,3.06-1.25,4.6-1.83,1.88-.73,3.76-1.41,5.65-2.06,1.76-.6,3.52-1.17,5.3-1.71,4.85-1.49,9.76-2.75,14.72-3.78,8.52-1.75,17.19-2.78,26.05-3.02,15.25-.4,30.41.29,45.15,4.14,1.44.38,2.89.76,4.32,1.15,2.4.65,4.79,1.32,7.16,2.03,9.04,2.62,17.98,5.57,26.74,8.91,6.6,2.52,13.15,5.21,19.68,7.93h0c2.62,1.11,5.23,2.21,7.85,3.33,8.37,3.56,16.71,7.14,25.16,10.54,16.64,6.69,33.7,12.29,51.66,13.89,21.35,1.9,41.15-3.33,59.64-14.26,12.62-7.46,23.33-17,33.28-27.59l7.48-7.33Z"></path>
  <path class="cls-1" d="m457.62,253.09s-6.69,13.61-9.26,17.53c-2.95,4.49-6.21,8.79-9.54,13.01-7.04,8.9-15.34,16.8-24.89,22.92-16.15,10.36-33.77,15.18-52.57,16.78-10.14.86-20.1.52-29.97-.62l-6.57-.88,3.07,5.9,58.78,112.99,3.57,6.85,5.42,10.42h-37.68l-72.59-139.56-3.52-6.75c-2.46-.78-4.92-1.58-7.37-2.43-13.54-4.61-26.82-9.98-40.17-15.17-10.8-4.2-21.73-8.2-32.9-11.27-21.22-5.8-42.83-6.72-64.7-3.89-.49.07-.98.13-1.47.2h0c-1.51.22-3.02.44-4.51.68l-92.67,178.19H0l86.63-166.53c-6.78,2.43-13.5,5.1-20.18,7.93-6.06,2.58-19.57,9.24-21.01,8.86,1.82-1.77,7.37-7.17,8.37-8.02,13.72-11.54,28.21-21.9,43.97-30.19,2.05-1.1,4.12-2.14,6.22-3.15h0c3.02-1.47,6.08-2.84,9.19-4.14,10.25-4.25,20.72-7.51,31.46-9.63,1.53-.3,3.06-.59,4.6-.84,6.65-1.1,13.4-1.77,20.26-1.95,15.24-.39,30.41.29,45.15,4.15,12.68,3.31,25.27,7.17,37.51,11.82.24.08.48.17.72.26,2.32.89,4.65,1.8,6.96,2.72,15.34,6.12,30.4,12.92,45.72,19.09.78.31,1.56.63,2.34.93,2.53,1,5.08,1.96,7.63,2.9,13.48,4.92,27.3,8.77,41.69,10.06,21.35,1.9,41.15-3.33,59.64-14.26,12.61-7.46,23.33-17,33.28-27.59l7.48-7.34Z"></path>
  <path class="cls-2" d="m274.85,225.77c-4.59-1.89-9.21-3.74-13.85-5.51-10.06-3.84-20.62-7.28-32.13-10.48l-15.85-30.46-34.37-66.1,18.82-36.2,23.58,45.37,53.79,103.39Z"></path>
  <g>
    <path d="m73.64,442.71l.99,1.91-6.34,12.19h-1.98l7.34-14.11Zm13.51,14.11h-1.98l-7.63-14.66-1.81-3.48.99-1.9,1.24,2.39,9.18,17.66Z"></path>
    <path d="m90.26,456.82v-20.22h1.66v20.22h-1.66Z"></path>
    <path d="m113.12,456.82h-1.95l-6.02-9.87-.17-.28-.29-.47-.53.15h-.02s-.01,0-.01,0h0s0,0,0,0h-.02s-.08.03-.12.04h-.03s-.01,0-.01,0h-.01s0,0,0,0h-.01c-.07.02-.15.04-.22.06-.17.04-.35.07-.52.1-.04,0-.09.02-.13.02h-.02s-.02,0-.02,0c-.02,0-.03,0-.05,0h-.01c-.06.01-.12.02-.18.03h0s0,0,0,0c-.02,0-.04,0-.06,0h-.02c-.07.01-.13.02-.2.03h0c-.09,0-.17.02-.24.02-.01,0-.02,0-.04,0-.07,0-.14,0-.22.01h-.02s-.01,0-.01,0h-.02c-.06,0-.11,0-.17,0h-.06s-.05,0-.05,0c-.07,0-.14,0-.21,0h-4.75v10.1h-1.66v-11.76h6.41c1.17,0,2.29-.23,3.35-.69.96-.41,1.82-1,2.57-1.74.97-.96,1.7-2.14,2.11-3.43l.3-.95h-13.08v5.05l-.75.37-.91.45v-7.54h16.51v.04c0,.74-.08,1.48-.24,2.2-.42,1.89-1.38,3.62-2.77,4.99-.13.13-.26.25-.39.36-.04.04-.09.08-.13.11,0,0-.02.01-.02.02-.06.05-.12.1-.17.14h0s0,0,0,0c-.04.03-.08.07-.13.1-.02.01-.04.03-.05.04l-.03.03c-.11.08-.22.16-.34.25-.04.03-.09.06-.13.09h0s-.04.03-.04.03c-.04.03-.09.06-.14.09l-.03.02h0s-.01.01-.01.01c0,0-.01,0-.02.01-.01,0-.02.01-.03.02l-.6.38.37.61.38.62,6.14,10.06Z"></path>
    <path d="m146.09,450.77h1.86c-.71,1.61-1.82,3-3.26,4.07-1.75,1.29-3.83,1.97-6.01,1.97-2.44,0-4.8-.88-6.65-2.49-1.82-1.59-3.02-3.77-3.37-6.15-.07-.49-.11-.98-.11-1.48s.03-.96.1-1.43c.34-2.39,1.53-4.59,3.36-6.19,1.84-1.62,4.21-2.51,6.67-2.51,2.24,0,4.36.72,6.14,2.07,1.46,1.11,2.59,2.62,3.27,4.31h-1.82c-1.42-2.88-4.35-4.71-7.58-4.71-4.01,0-7.5,2.86-8.29,6.79-.11.55-.17,1.11-.17,1.67s.06,1.17.18,1.74c.82,3.89,4.3,6.72,8.28,6.72,3.07,0,5.93-1.7,7.41-4.38Z"></path>
    <path d="m169.69,446.67c0,5.6-4.55,10.15-10.15,10.15s-10.15-4.55-10.15-10.15,4.55-10.15,10.15-10.15,10.15,4.55,10.15,10.15Zm-1.77,0c0-4.62-3.76-8.38-8.38-8.38s-8.38,3.76-8.38,8.38,3.76,8.38,8.38,8.38,8.38-3.76,8.38-8.38Z"></path>
    <path d="m187.89,436.64v19.05l-1.88-1.88-10.93-10.93-1.24-1.24-1.66-1.66v-2.35l14.05,14.05v-15.04h1.66Zm-15.71,7.61l1.66,1.66v10.91h-1.66v-12.58Z"></path>
    <path d="m209.02,446.77c0,.5-.04,1-.11,1.48-.66,4.48-4.25,7.99-8.74,8.56h-9.18v-1.66h9.12c3.5-.51,6.33-3.18,7.06-6.64.12-.57.18-1.16.18-1.74s-.06-1.13-.17-1.67c-.41-2.02-1.54-3.82-3.19-5.07-1.37-1.04-3.01-1.63-4.73-1.71h-.01s-8.25,0-8.25,0v-1.67h8.01c2.43.03,4.77.93,6.59,2.55,1.8,1.6,2.98,3.78,3.32,6.16.07.46.1.94.1,1.42Zm-16.91,7l-1.11.55v-12.99h1.66v12.16l-.55.27Z"></path>
    <path d="m212.13,456.82v-20.22h1.66v20.22h-1.66Z"></path>
    <path d="m216.89,438.31v-1.66h17.84v1.66h-17.84Zm7.92,18.5v-15.49h1.66v15.49h-1.66Z"></path>
    <path d="m237.82,456.82v-20.22h1.66v20.22h-1.66Z"></path>
    <path d="m262.87,446.67c0,5.6-4.55,10.15-10.15,10.15s-10.15-4.55-10.15-10.15,4.55-10.15,10.15-10.15,10.15,4.55,10.15,10.15Zm-1.77,0c0-4.62-3.76-8.38-8.38-8.38s-8.38,3.76-8.38,8.38,3.76,8.38,8.38,8.38,8.38-3.76,8.38-8.38Z"></path>
    <path d="m281.08,436.64v19.05l-1.88-1.88-10.93-10.93-1.24-1.24-1.66-1.66v-2.35l14.05,14.05v-15.04h1.66Zm-15.71,7.61l1.66,1.66v10.91h-1.66v-12.58Z"></path>
    <path d="m284.19,456.82v-20.22h1.66v20.22h-1.66Z"></path>
    <path d="m304.65,436.64v19.05l-1.88-1.88-10.93-10.93-1.24-1.24-1.66-1.66v-2.35l14.05,14.05v-15.04h1.66Zm-15.71,7.61l1.66,1.66v10.91h-1.66v-12.58Z"></path>
    <path d="m326.12,445.16v11.66h-8.61c-2.74,0-5.33-1.04-7.27-2.92-1.97-1.9-3.06-4.44-3.06-7.15s1.09-5.25,3.06-7.15c1.95-1.88,4.53-2.92,7.27-2.92h8.57v1.66h-9.76c-4.3.58-7.55,4.19-7.55,8.4s3.25,7.82,7.55,8.39h.05s8.09,0,8.09,0v-8.33h-6.42l-.77-1.66h8.86Z"></path>
  </g>
</svg>